<?xml version="1.0" standalone="no"?>
<!DOCTYPE svg PUBLIC "-//W3C//DTD SVG 20010904//EN"
 "http://www.w3.org/TR/2001/REC-SVG-20010904/DTD/svg10.dtd">
<svg version="1.0" xmlns="http://www.w3.org/2000/svg"
 width="512.000000pt" height="512.000000pt" viewBox="0 0 512.000000 512.000000"
 preserveAspectRatio="xMidYMid meet">

<g transform="translate(0.000000,512.000000) scale(0.100000,-0.100000)"
fill="white" stroke="none">
<path d="M805 3765 c-98 -35 -129 -155 -64 -247 45 -62 -90 -58 1831 -58 1649
0 1755 1 1787 18 53 26 75 64 75 125 0 86 -48 149 -130 167 -23 6 -757 9
-1749 9 -1449 0 -1716 -2 -1750 -14z"/>
<path d="M774 2716 c-62 -27 -102 -111 -89 -188 8 -47 56 -105 102 -124 48
-21 3498 -21 3546 0 46 19 94 77 102 124 13 79 -34 164 -108 191 -20 8 -567
11 -1775 11 -1440 -1 -1752 -3 -1778 -14z"/>
<path d="M763 1644 c-127 -63 -96 -274 45 -314 54 -14 3453 -14 3507 1 141 39
165 243 36 309 -40 20 -48 20 -1798 20 -1591 0 -1761 -2 -1790 -16z"/>
</g>
</svg>
